<svg id="Capa_1" enable-background="new 0 0 512 512" height="512" viewBox="0 0 512 512" width="512" xmlns="http://www.w3.org/2000/svg"><g><g><g><g><g><path d="m269.863 486.825v-70.863h-75.263v70.863c0 13.904 11.271 25.175 25.175 25.175h29.749c10.992-3.441 20.339-13.83 20.339-25.175z" fill="#eaf2ff"/></g><path d="m283.998 457.066c0 12.458-10.099 22.557-22.557 22.557h-.696v7.203c0 13.904-11.271 25.175-25.175 25.175h56.655c13.904 0 25.175-11.271 25.175-25.175v-70.863h-33.403v41.103z" fill="#c9e0fd"/><g><path d="m171.347 457.066c0 12.458 10.099 22.557 22.556 22.557h75.959.696c12.458 0 22.557-10.099 22.557-22.557v-41.104-68.747h-121.768z" fill="#eaf2ff"/></g><g><path d="m293.115 394.232c7.559-2.566 13.433-9.009 14.957-17.211 1.55-8.341 3.85-17.235 6.76-25.815.052-.154.103-.309.156-.463 7.108-20.776 17.873-40.279 32.031-57.477 25.499-30.974 40.812-70.646 40.812-113.899 0-86.963-67.137-160.759-149.559-177.245-2.777-.555-5.627-.624-8.429-.213-86.051 12.651-152.416 86.892-153.204 175.834-.389 43.898 14.997 84.187 40.83 115.553 19.992 24.274 33.245 53.142 38.923 83.721 1.986 10.697 11.359 18.43 22.239 18.43h114.483v-1.215z" fill="#ffd064"/></g></g><g><path d="m298.955 377.021c-1.524 8.202-7.398 14.645-14.957 17.211v62.834c0 12.458-10.099 22.557-22.557 22.557h56.655c12.458 0 22.557-10.099 22.557-22.557v-109.85h-33.536c-3.531 9.678-6.274 19.643-8.162 29.805z" fill="#c9e0fd"/><path d="m250.892.071c-7.867.219-15.605.958-23.189 2.168 85.586 13.595 151.01 87.718 151.01 177.129 0 43.253-15.313 82.924-40.812 113.899-19.996 24.29-33.262 53.165-38.946 83.754-1.524 8.202-7.398 14.645-14.957 17.211v1.215h49.374c10.878 0 20.251-7.731 22.238-18.426 5.684-30.59 18.951-59.465 38.946-83.754 25.499-30.974 40.812-70.646 40.812-113.899 0-100.759-83.081-182.114-184.476-179.297z" fill="#ffc250"/></g><path d="m270.558 479.623c12.458 0 22.557-10.099 22.557-22.557v-20.201h-121.768v20.201c0 12.458 10.099 22.557 22.557 22.557h75.959z" fill="#c9e0fd"/><path d="m340.653 457.066v-20.201h-56.655v20.201c0 12.458-10.099 22.557-22.557 22.557h56.655c12.458 0 22.557-10.099 22.557-22.557z" fill="#9bc4f9"/></g><path d="m355.404 253.953c0-19.524-15.883-35.407-35.407-35.407-23.868 0-43.63 18.666-44.99 42.495l-.734 12.867h-36.545l-.734-12.868c-1.361-23.828-21.122-42.494-44.989-42.494-19.524 0-35.408 15.884-35.408 35.407-.001 9.457 3.683 18.349 10.37 25.037 6.688 6.688 15.579 10.371 25.037 10.371h31.13l6.055 106.087h15.456c0-.147.006-.292-.003-.44l-6.03-105.646h34.782l-6.031 105.646c-.008.148-.003.294-.003.44h15.456l6.055-106.087h31.129c19.521 0 35.404-15.884 35.404-35.408zm-163.402 19.955c-5.33 0-10.341-2.075-14.11-5.845-3.769-3.769-5.844-8.78-5.844-14.11.001-11.004 8.953-19.955 19.956-19.955 15.683 0 28.668 12.265 29.562 27.923l.684 11.987zm127.996 0h-30.247l.685-11.987c.893-15.657 13.878-27.923 29.562-27.923 11.002 0 19.954 8.952 19.954 19.955s-8.952 19.955-19.954 19.955z" fill="#e7a561"/></g></g></svg>